<svg width="400" height="192" viewBox="0 0 400 192" fill="none" xmlns="http://www.w3.org/2000/svg">
<circle cx="96" cy="96" r="96" fill="#6D69EA"/>
<path d="M53.3333 76.8272C53.3333 62.6962 64.8954 64.0339 79.1578 64.0339V115.207C79.1578 122.272 73.3768 128 66.2456 128C59.1144 128 53.3333 122.272 53.3333 115.207V76.8272Z" fill="white"/>
<path d="M79.1578 71.8211V64.0339H83.0877C83.0877 64.0339 80.0381 65.5446 79.3118 69.8969C79.2121 70.5263 79.1578 71.1737 79.1578 71.8211Z" fill="white"/>
<path d="M83.0879 76.8272C83.0879 62.6962 94.6499 64.0339 108.912 64.0339V115.207C108.912 122.272 103.131 128 96.0002 128C88.8689 128 83.0879 122.272 83.0879 115.207V76.8272Z" fill="white"/>
<path d="M108.912 71.8187V64.0317L112.842 64.0315C112.842 64.0315 109.792 65.5422 109.066 69.8944C108.966 70.5239 108.912 71.1713 108.912 71.8187Z" fill="white"/>
<path d="M112.842 76.9464C112.842 69.8152 118.623 64.0342 125.754 64.0342V64.0342C132.885 64.0342 138.666 69.8152 138.666 76.9464V115.088C138.666 122.219 132.885 128 125.754 128V128C118.623 128 112.842 122.219 112.842 115.088V76.9464Z" fill="white"/>
</svg>