<svg width="554" height="192" viewBox="0 0 554 192" fill="none" xmlns="http://www.w3.org/2000/svg">
<circle cx="96" cy="96" r="96" fill="#6D69EA"/>
<path d="M53.3333 76.8272C53.3333 62.6962 64.8954 64.0339 79.1578 64.0339V115.207C79.1578 122.272 73.3768 128 66.2456 128C59.1144 128 53.3333 122.272 53.3333 115.207V76.8272Z" fill="white"/>
<path d="M79.1578 71.8211V64.0339H83.0877C83.0877 64.0339 80.0381 65.5446 79.3118 69.8969C79.2121 70.5263 79.1578 71.1737 79.1578 71.8211Z" fill="white"/>
<path d="M83.0879 76.8272C83.0879 62.6962 94.6499 64.0339 108.912 64.0339V115.207C108.912 122.272 103.131 128 96.0002 128C88.8689 128 83.0879 122.272 83.0879 115.207V76.8272Z" fill="white"/>
<path d="M108.912 71.8187V64.0317L112.842 64.0315C112.842 64.0315 109.792 65.5422 109.066 69.8944C108.966 70.5239 108.912 71.1713 108.912 71.8187Z" fill="white"/>
<path d="M112.842 76.9464C112.842 69.8152 118.623 64.0342 125.754 64.0342V64.0342C132.885 64.0342 138.666 69.8152 138.666 76.9464V115.088C138.666 122.219 132.885 128 125.754 128V128C118.623 128 112.842 122.219 112.842 115.088V76.9464Z" fill="white"/>
<path d="M240.533 115.167V38.9H262.293L273.067 77.1933C273.849 80.0377 274.631 83.2022 275.413 86.6866C276.267 90.1 276.907 92.8022 277.333 94.7933L277.867 97.78H278.08C279.431 90.4555 280.996 83.5933 282.773 77.1933L293.547 38.9H315.627V115.167H301.227V71.4333L301.867 55.6466H301.653C300.516 61.62 299.413 66.4555 298.347 70.1533L285.227 115.167H270.4L257.6 70.1533L254.293 55.6466H254.08C254.507 62.0466 254.72 67.3088 254.72 71.4333V115.167H240.533ZM372.742 108.553C367.408 114.029 360.546 116.767 352.155 116.767C343.764 116.767 336.902 114.029 331.568 108.553C326.235 103.007 323.568 96.1088 323.568 87.86C323.568 79.6111 326.235 72.7488 331.568 67.2733C336.902 61.7266 343.764 58.9533 352.155 58.9533C360.546 58.9533 367.408 61.7266 372.742 67.2733C378.075 72.7488 380.742 79.6111 380.742 87.86C380.742 96.1088 378.075 103.007 372.742 108.553ZM352.155 105.673C356.493 105.673 359.871 104.073 362.288 100.873C364.777 97.6022 366.022 93.2644 366.022 87.86C366.022 82.4555 364.777 78.1177 362.288 74.8466C359.871 71.5755 356.493 69.94 352.155 69.94C347.746 69.94 344.333 71.5755 341.915 74.8466C339.497 78.0466 338.288 82.3844 338.288 87.86C338.288 93.2644 339.497 97.6022 341.915 100.873C344.333 104.073 347.746 105.673 352.155 105.673ZM401.672 60.4466V67.9133H401.992C405.761 61.94 411.165 58.9533 418.205 58.9533C423.823 58.9533 428.374 60.8733 431.858 64.7133C435.343 68.4822 437.085 73.3888 437.085 79.4333V115.167H422.578V81.5666C422.578 78.58 421.725 76.1622 420.018 74.3133C418.383 72.4644 416.072 71.54 413.085 71.54C409.885 71.54 407.218 72.7133 405.085 75.06C403.023 77.4066 401.992 80.4288 401.992 84.1266V115.167H387.485V60.4466H401.672ZM471.733 116.767C462.916 116.767 455.982 114.064 450.933 108.66C445.884 103.184 443.36 96.2155 443.36 87.7533C443.36 79.5755 445.884 72.7488 450.933 67.2733C455.982 61.7266 462.453 58.9533 470.347 58.9533C478.951 58.9533 485.6 61.94 490.293 67.9133C494.987 73.8866 497.333 81.8866 497.333 91.9133H457.653C458.222 96.2511 459.68 99.6288 462.027 102.047C464.373 104.393 467.573 105.567 471.627 105.567C476.96 105.567 480.48 103.327 482.187 98.8466H496.48C495.413 103.967 492.711 108.233 488.373 111.647C484.036 115.06 478.489 116.767 471.733 116.767ZM470.56 70.1533C463.52 70.1533 459.289 74.0644 457.867 81.8866H482.187C481.973 78.4022 480.8 75.5933 478.667 73.46C476.533 71.2555 473.831 70.1533 470.56 70.1533ZM496.978 115.167L516.925 86.1533L499.112 60.4466H515.645L525.352 76.1266H525.565L534.738 60.4466H549.778L532.818 86.0466L552.338 115.167H535.058L524.925 97.0333H524.712L512.872 115.167H496.978Z" fill="#121212"/>
<path d="M408.277 162.833V132.327H412.117V162.833H408.277ZM427.884 163.473C424.954 163.473 422.636 162.293 420.93 159.932H420.844V162.833H417.388V132.327H420.844V143.932H420.93C422.722 141.486 425.082 140.263 428.012 140.263C430.857 140.263 433.132 141.301 434.839 143.377C436.546 145.425 437.399 148.256 437.399 151.868C437.399 155.424 436.546 158.254 434.839 160.359C433.161 162.435 430.842 163.473 427.884 163.473ZM427.628 160.572C429.676 160.572 431.226 159.79 432.279 158.225C433.331 156.632 433.858 154.528 433.858 151.911C433.858 149.322 433.331 147.232 432.279 145.639C431.226 144.017 429.69 143.207 427.671 143.207C425.367 143.207 423.618 144.032 422.423 145.681C421.228 147.303 420.631 149.379 420.631 151.911C420.631 154.499 421.228 156.59 422.423 158.183C423.618 159.776 425.353 160.572 427.628 160.572ZM458.169 163.047C455.979 163.047 454.713 161.952 454.372 159.761H454.329C452.509 162.094 450.063 163.26 446.991 163.26C444.8 163.26 443.008 162.734 441.615 161.681C440.221 160.629 439.524 159.107 439.524 157.116C439.524 156.092 439.68 155.21 439.993 154.471C440.335 153.703 440.761 153.091 441.273 152.636C441.785 152.152 442.482 151.74 443.364 151.399C444.274 151.029 445.142 150.759 445.967 150.588C446.791 150.389 447.844 150.19 449.124 149.991C449.949 149.877 450.532 149.792 450.873 149.735C451.243 149.649 451.712 149.536 452.281 149.393C452.85 149.223 453.248 149.038 453.476 148.839C453.703 148.64 453.917 148.369 454.116 148.028C454.315 147.687 454.415 147.288 454.415 146.833C454.415 145.582 453.974 144.629 453.092 143.975C452.239 143.292 451.03 142.951 449.465 142.951C445.91 142.951 444.075 144.572 443.961 147.815H440.633C440.69 145.568 441.458 143.761 442.937 142.396C444.445 141.031 446.607 140.348 449.423 140.348C454.855 140.348 457.572 142.68 457.572 147.345V157.841C457.572 158.808 457.728 159.491 458.041 159.889C458.383 160.288 459.008 160.387 459.919 160.188H460.047V162.705C459.478 162.933 458.852 163.047 458.169 163.047ZM447.759 160.615C449.892 160.615 451.542 160.003 452.708 158.78C453.874 157.528 454.457 156.163 454.457 154.684V150.929C453.405 151.584 451.727 152.124 449.423 152.551C448.569 152.721 447.901 152.864 447.417 152.977C446.934 153.063 446.379 153.233 445.753 153.489C445.127 153.717 444.658 153.973 444.345 154.257C444.032 154.542 443.762 154.926 443.535 155.409C443.307 155.864 443.193 156.405 443.193 157.031C443.193 159.42 444.715 160.615 447.759 160.615ZM466.053 140.775V143.676H466.138C467.845 141.4 470.177 140.263 473.135 140.263C475.468 140.263 477.288 140.874 478.597 142.097C479.905 143.32 480.559 145.07 480.559 147.345V162.833H477.103V147.644C477.103 146.222 476.662 145.127 475.781 144.359C474.899 143.562 473.676 143.164 472.111 143.164C470.348 143.164 468.897 143.733 467.759 144.871C466.621 146.008 466.053 147.473 466.053 149.265V162.833H462.597V140.775H466.053ZM494.568 163.431C491.296 163.431 488.694 162.336 486.76 160.145C484.854 157.927 483.901 155.153 483.901 151.825C483.901 148.554 484.868 145.809 486.802 143.591C488.765 141.344 491.282 140.22 494.354 140.22C497.597 140.22 500.1 141.358 501.864 143.633C503.627 145.88 504.509 148.881 504.509 152.636H487.442C487.584 154.968 488.267 156.874 489.49 158.353C490.742 159.804 492.434 160.529 494.568 160.529C497.867 160.529 499.901 159.022 500.669 156.007H504.04C503.528 158.368 502.447 160.202 500.797 161.511C499.147 162.791 497.071 163.431 494.568 163.431ZM498.962 144.828C497.853 143.576 496.317 142.951 494.354 142.951C492.392 142.951 490.827 143.605 489.661 144.913C488.523 146.222 487.812 147.928 487.528 150.033H500.797C500.683 147.815 500.072 146.08 498.962 144.828ZM511.344 140.775V144.444H511.43C512.141 143.278 513.065 142.339 514.203 141.628C515.341 140.888 516.606 140.519 518 140.519C518.512 140.519 518.982 140.604 519.408 140.775V144.103H519.28C518.854 143.96 518.342 143.889 517.744 143.889C515.981 143.889 514.473 144.515 513.222 145.767C511.97 146.99 511.344 148.597 511.344 150.588V162.833H507.888V140.775H511.344ZM539.003 163.047C536.812 163.047 535.547 161.952 535.205 159.761H535.163C533.342 162.094 530.896 163.26 527.824 163.26C525.634 163.26 523.842 162.734 522.448 161.681C521.054 160.629 520.357 159.107 520.357 157.116C520.357 156.092 520.514 155.21 520.827 154.471C521.168 153.703 521.595 153.091 522.107 152.636C522.619 152.152 523.315 151.74 524.197 151.399C525.107 151.029 525.975 150.759 526.8 150.588C527.625 150.389 528.677 150.19 529.957 149.991C530.782 149.877 531.365 149.792 531.707 149.735C532.076 149.649 532.546 149.536 533.115 149.393C533.683 149.223 534.082 149.038 534.309 148.839C534.537 148.64 534.75 148.369 534.949 148.028C535.148 147.687 535.248 147.288 535.248 146.833C535.248 145.582 534.807 144.629 533.925 143.975C533.072 143.292 531.863 142.951 530.299 142.951C526.743 142.951 524.908 144.572 524.795 147.815H521.467C521.523 145.568 522.291 143.761 523.771 142.396C525.278 141.031 527.44 140.348 530.256 140.348C535.689 140.348 538.405 142.68 538.405 147.345V157.841C538.405 158.808 538.562 159.491 538.875 159.889C539.216 160.288 539.842 160.387 540.752 160.188H540.88V162.705C540.311 162.933 539.685 163.047 539.003 163.047ZM528.592 160.615C530.725 160.615 532.375 160.003 533.541 158.78C534.707 157.528 535.291 156.163 535.291 154.684V150.929C534.238 151.584 532.56 152.124 530.256 152.551C529.403 152.721 528.734 152.864 528.251 152.977C527.767 153.063 527.212 153.233 526.587 153.489C525.961 153.717 525.491 153.973 525.179 154.257C524.866 154.542 524.595 154.926 524.368 155.409C524.14 155.864 524.027 156.405 524.027 157.031C524.027 159.42 525.548 160.615 528.592 160.615Z" fill="black" fill-opacity="0.78"/>
<path d="M351.957 162.833L357.845 132.327H359.893L357.504 144.572H357.589C359.495 141.728 362.012 140.305 365.141 140.305C367.502 140.305 369.38 141.116 370.773 142.737C372.196 144.359 372.892 146.52 372.864 149.223C372.836 151.64 372.452 153.888 371.712 155.964C370.972 158.012 369.749 159.747 368.043 161.169C366.336 162.592 364.302 163.303 361.941 163.303C360.32 163.303 358.869 162.904 357.589 162.108C356.338 161.283 355.442 160.131 354.901 158.652H354.816L354.005 162.833H351.957ZM355.669 154.385C355.641 156.661 356.181 158.439 357.291 159.719C358.4 160.97 359.993 161.596 362.069 161.596C364.004 161.596 365.653 160.942 367.019 159.633C368.384 158.296 369.337 156.732 369.877 154.94C370.446 153.148 370.731 151.256 370.731 149.265C370.731 147.217 370.233 145.511 369.237 144.145C368.242 142.752 366.748 142.055 364.757 142.055C362.88 142.055 361.23 142.723 359.808 144.06C358.386 145.368 357.348 146.933 356.693 148.753C356.039 150.574 355.698 152.451 355.669 154.385ZM374.418 170.129C373.65 170.129 372.982 170.044 372.413 169.873L372.797 167.996H372.882C373.451 168.138 374.006 168.209 374.546 168.209C376.196 168.209 377.533 167.2 378.557 165.18L379.623 163.132L374.802 140.775H376.893L379.922 155.281L380.903 160.913H380.989C381.984 158.752 382.866 156.903 383.634 155.367L390.93 140.775H393.106L380.221 166.033C378.827 168.764 376.893 170.129 374.418 170.129Z" fill="#747474" fill-opacity="0.65"/>
</svg>
